<svg xmlns="http://www.w3.org/2000/svg" width="392" height="102" viewBox="0 0 392 102"><g fill="none" fill-rule="evenodd"><g fill-rule="nonzero" transform="translate(3 3)"><g transform="translate(1)"><path fill="#93CFA9" d="M27.4192965,24.4211705 L27.4192965,16.4918452 L12.8084695,16.4918452 L12.8084695,0.802286537 L0,0.802286537 L0,44.1785257 L12.8096545,44.1785257 L12.8096545,26.0821075 L27.4382562,26.0821075 L27.4382562,44.1785257 L40.1779968,44.1785257 C37.6658352,43.5537256 35.4262193,42.5775504 33.5101035,41.2523985 C28.172945,37.5047969 27.4192965,30.835865 27.4192965,24.4211705"/><path fill="#12C2F2" d="M67.6660222,3.05564439 L67.6660222,0.801087304 L55.6740052,0.801087304 L55.6740052,22.8213943 C55.7320694,13.901503 60.3096545,6.84282059 67.6660222,3.05564439 M55.6728202,23.1727694 L55.6728202,24.2304925 C55.6728202,30.6451871 54.6691406,34.3292293 47.5734689,34.3292293 C41.4992516,34.3292293 40.3296745,30.7687081 40.1827367,25.5904221 L40.1827367,44.1785257 L40.1768118,44.1785257 C42.3619184,44.7217781 44.7532119,45 47.3234377,45 C53.8941624,45 59.2988649,43.0764311 62.9403143,39.4811321 C58.3970937,35.6471858 55.7202196,29.9988008 55.6728202,23.1727694"/><path fill="#00B7B1" d="M40.1827367,25.5916214 C40.1708869,25.1479053 40.164962,24.6957947 40.164962,24.2304925 L40.164962,0.803485769 L27.4370712,0.803485769 L27.4370712,16.4930445 L27.4192965,16.4930445 L27.4192965,24.4223697 C27.4192965,30.8382635 28.172945,37.5059962 33.5089185,41.2535977 C35.4238494,42.5787496 37.6646502,43.5549248 40.1768118,44.179725 L40.1827367,44.179725 L40.1827367,25.5916214 Z"/><path fill="#65C6C1" d="M81.9888986,10.1634954 C85.5094799,10.1634954 88.9127479,10.8614486 91.9557815,12.1326351 L95,2.7942117 C91.9557815,1.46066518 87.0618062,0 81.1534864,0 C76.069914,0 71.4923289,1.08530541 67.6660222,3.05564439 L67.6660222,22.8645667 C67.6660222,15.3070035 73.6335911,10.1622961 81.9888986,10.1622961"/><path fill="#65C2BF" d="M55.6728202,23.1727694 C55.6728202,23.1128079 55.6692653,23.0540454 55.6692653,22.9928846 C55.6692653,22.9353214 55.6728202,22.8789575 55.6728202,22.8213943 L55.6728202,23.1727694 Z"/><path fill="#65C6C1" d="M83.3622927,34.4899264 C82.4071973,34.7441637 81.4509169,34.8065238 80.3168892,34.8065238 C73.0967943,34.8065238 67.6660222,29.9160537 67.6660222,22.8657659 L67.6660222,23.7855772 C67.6660222,30.2002719 66.9751778,35.4085385 63.0825121,39.346818 L62.9403143,39.4811321 C67.0806412,42.9780941 72.7661843,44.9688199 79.4234128,44.9688199 C83.3018585,44.9688199 87.4812898,44.3332267 91.1808033,43.0620403 C91.8372833,42.8102015 92.8516278,42.4288455 94.7618187,41.6025744 L94.7618187,22.2313719 L83.3622927,22.2313719 L83.3622927,34.4899264 Z"/><path fill="#00B3BE" d="M67.6660222,23.784378 L67.6660222,3.05564439 C60.3096545,6.84282059 55.7320694,13.9003038 55.6740052,22.8213943 L55.6740052,23.1727694 C55.7202196,29.9988008 58.3970937,35.6459865 62.9391293,39.4823313 C62.9865286,39.4355612 63.0362979,39.3923889 63.0813272,39.3456188 C66.9751778,35.4085385 67.6660222,30.2002719 67.6660222,23.784378"/></g><path fill="#58585B" d="M27.1284001,61.6375467 L28.2014075,61.6375467 L28.2014075,54.3620894 L27.1284001,54.3620894 L27.1284001,61.6375467 Z M27.6725429,53.5517415 C27.4868918,53.5523649 27.3086634,53.4784085 27.1773874,53.3462672 C27.0461115,53.2141259 26.9726393,53.0347228 26.9732586,52.8478478 C26.9732586,52.4574575 27.2835337,52.1439621 27.6725429,52.1439621 C28.0603769,52.1439621 28.3729947,52.4562745 28.3729947,52.8478478 C28.3729947,53.2382382 28.0615522,53.5517415 27.6725429,53.5517415 L27.6725429,53.5517415 Z M32.3359529,61.7925198 C31.0784306,61.7925198 30.5025558,61.2459732 30.5025558,60.0724361 L30.5025558,55.1901902 L29.2885179,55.1901902 L29.2885179,54.3620894 L30.5013806,54.3620894 L30.5013806,52.3770134 L31.5591096,52.3770134 L31.5591096,54.3620894 L33.4089603,54.3620894 L33.4089603,55.1913732 L31.5579344,55.1913732 L31.5579344,59.5093275 C31.5579344,59.8216398 31.574388,60.1351351 31.6049445,60.2759123 C31.6825114,60.6970607 32.0256857,60.9017199 32.677952,60.9017199 C32.9118276,60.9017199 33.0975178,60.8697789 33.4089603,60.8070798 L33.4089603,61.6363637 C32.8800957,61.7617618 32.6626736,61.7925198 32.3359529,61.7925198 M38.4931113,57.9453999 C36.45522,58.4919465 35.5385214,59.1189371 35.5385214,59.9470379 C35.5385214,60.4166894 35.8652422,60.7455638 36.3470966,60.7455638 C36.9535279,60.7455638 37.7773813,60.2605333 38.4931113,59.4620075 L38.4931113,57.9465829 L38.4931113,57.9453999 Z M39.7506336,61.8090818 C39.0219758,61.8090818 38.6012347,61.3548094 38.5542246,60.5432706 C38.2756893,60.8082628 38.1663906,60.9017199 37.9948034,61.028301 C37.3730938,61.5109655 36.7513841,61.7617618 36.1296745,61.7617618 C35.1495122,61.7617618 34.4349574,61.028301 34.4349574,60.026299 C34.4349574,58.6339066 35.73949,57.6638457 38.4931113,57.0534171 L38.4931113,56.7399217 C38.4931113,55.5190645 38.2439573,55.1286741 37.4823924,55.1286741 C37.1885788,55.1286741 36.9229713,55.1901902 36.5809722,55.3463463 C36.1296745,55.5356265 35.8029537,55.7225407 35.1812441,56.2075712 L34.621823,55.5344435 C35.4915113,54.7063427 36.7361059,54.1266721 37.6539796,54.1266721 C38.3062458,54.1266721 38.8351104,54.3455274 39.1465528,54.7690418 C39.45682,55.1594322 39.5496652,55.6279006 39.5496652,56.5825826 L39.5496652,60.1185731 C39.5496652,60.2274092 39.5649435,60.3374283 39.581397,60.4474474 C39.6436855,60.7443807 39.8152727,60.8851579 40.1102616,60.8851579 C40.218385,60.8851579 40.297127,60.8685959 40.4980956,60.8224588 L40.6379508,61.5571025 C40.3112301,61.7298207 40.0467978,61.8078988 39.7518089,61.8078988 L39.7506336,61.8090818 Z M46.5142234,61.6375467 L46.5142234,60.4947675 C45.7068236,61.3559923 44.7266613,61.8244609 43.746499,61.8244609 C43.0942328,61.8244609 42.5653682,61.5902265 42.2233692,61.1832742 C41.8660918,60.7455638 41.7567931,60.2297752 41.7567931,59.02548 L41.7567931,54.3620894 L42.8145222,54.3620894 L42.8145222,58.6966057 C42.8145222,59.3058513 42.8298005,59.5720266 42.8615324,59.8228228 C42.9390992,60.4320684 43.3739434,60.7928838 43.995653,60.7928838 C44.7583932,60.7928838 45.7209266,60.2297752 46.5142234,59.3212303 L46.5142234,54.3620894 L47.6036843,54.3620894 L47.6036843,61.6375467 L46.5142234,61.6375467 Z M54.4272121,61.6375467 L52.2365377,58.5558286 L50.0740694,61.6375467 L48.816547,61.6375467 L51.5983745,57.7738648 L49.0798041,54.3620894 L50.4619034,54.3620894 L52.3446611,56.975339 L54.2262436,54.3620894 L55.4543845,54.3620894 L52.9510925,57.7738648 L55.8116619,61.6375467 L54.4272121,61.6375467 Z M4.24384408,75.9045409 C3.06271328,75.9045409 2.1448395,75.5756666 1.43028476,74.919101 C0.713379494,74.2613523 0.419565864,73.3705524 0.419565864,71.9308399 L0.419565864,65.2516153 L1.60069666,65.2516153 L1.60069666,71.9308399 C1.60069666,72.7601238 1.64770684,73.0736191 1.88040723,73.5420876 C2.27059174,74.3713714 3.17201195,74.8410229 4.30613257,74.8410229 C5.09942937,74.8410229 5.79870581,74.6375466 6.35930222,74.2459733 C7.13614545,73.6982437 7.3700211,73.0570571 7.3700211,71.6019656 L7.3700211,65.2516153 L8.45830679,65.2516153 L8.45830679,71.8220039 C8.45830679,74.3713714 6.87171319,75.9045409 4.24384408,75.9045409 M15.5768234,75.6856857 L15.5768234,71.2896533 C15.5768234,70.7419237 15.5768234,70.6484667 15.5615451,70.3515334 C15.5145349,69.5837656 15.1114226,69.1779961 14.4427028,69.1779961 C13.6341277,69.1779961 12.7632641,69.6630267 11.8924005,70.6177086 L11.8924005,75.6856857 L10.8193931,75.6856857 L10.8193931,68.4102284 L11.8924005,68.4102284 L11.8924005,69.4903085 C12.2496779,69.1626172 12.3742549,69.067977 12.6081305,68.8964419 C13.261572,68.4267904 13.9291166,68.1925562 14.61429,68.1925562 C15.2982881,68.1925562 15.810699,68.4114114 16.18443,68.8491219 C16.5417074,69.2868323 16.6498308,69.7564838 16.6498308,70.8673219 L16.6498308,75.6856857 L15.5768234,75.6856857 Z M18.8416805,75.6845027 L19.9146878,75.6845027 L19.9146878,68.4102284 L18.8416805,68.4102284 L18.8416805,75.6845027 Z M19.3858233,67.5998905 C19.1999689,67.6008202 19.0214374,67.5270033 18.8899064,67.3948276 C18.7583755,67.2626518 18.6847425,67.0830677 18.6853637,66.8959869 C18.6853637,66.5055965 18.9968141,66.1932842 19.3858233,66.1932842 C19.7748326,66.1932842 20.086275,66.5055965 20.086275,66.8959869 C20.086275,67.2875603 19.7748326,67.5998905 19.3858233,67.5998905 L19.3858233,67.5998905 Z M25.0599522,75.6856857 L24.0809651,75.6856857 L21.1263753,68.4102284 L22.339238,68.4102284 L24.6415615,74.2613523 L27.0508333,68.4114114 L28.1543973,68.4114114 L25.0599522,75.6856857 Z M32.2431078,69.0987351 C31.2171106,69.0987351 30.4073602,69.8972609 30.2052165,71.1334971 L33.984835,71.0554191 C33.9542784,69.8499408 33.2843833,69.0987351 32.2431078,69.0987351 M34.4196791,75.0906361 C33.5488155,75.6383656 32.8330855,75.8725999 32.0397888,75.8725999 C30.1593815,75.8725999 28.9312406,74.4021294 28.9312406,72.1650742 C28.9312406,69.8499408 30.3768037,68.1759941 32.3524065,68.1759941 C34.123515,68.1759941 35.1189556,69.4276094 35.1189556,71.6019656 L35.1189556,71.946219 L30.1276496,71.946219 L30.1276496,72.1816362 C30.1276496,73.8543999 30.8892145,74.8552189 32.179644,74.8552189 C32.6830278,74.8495512 33.1782471,74.7264487 33.6263824,74.4955865 C33.9683815,74.3240514 34.1399685,74.2140323 34.714668,73.8094458 L35.2282543,74.4802075 C34.9473684,74.7617617 34.8239667,74.8398398 34.4196791,75.0906361 M40.4828172,69.3968514 C40.2336632,69.2868323 40.1243647,69.2714533 39.969231,69.2714533 C39.3169648,69.2714533 38.4931113,70.1007371 37.9795251,71.2588952 L37.9795251,75.6856857 L36.921796,75.6856857 L36.921796,68.4114114 L37.9795251,68.4114114 L37.9795251,69.8191829 C38.0406383,69.6937847 38.1029268,69.6003276 38.1346587,69.5530075 C38.3215242,69.2714533 38.6788016,68.8810629 38.990244,68.6456456 C39.3169648,68.3960324 39.6895204,68.2552553 40.1090863,68.2552553 C40.3429619,68.2552553 40.4663636,68.2860132 40.7789813,68.3960324 L40.4828172,69.3968514 Z M45.3483709,75.3414323 C44.7724963,75.7164437 44.134333,75.8737828 43.1106863,75.8737828 C42.8909138,75.8737828 42.7052235,75.8572209 42.5195333,75.8418418 C42.0835139,75.8099009 41.8660918,75.7637637 41.3207737,75.5910456 L41.5088144,74.7463828 C41.6956799,74.7937028 41.83436,74.8256438 41.9436586,74.8564019 C42.2844825,74.919101 42.7052235,74.965238 43.0472226,74.965238 C44.3846622,74.965238 45.2237939,74.4802075 45.2237939,73.7136227 C45.2237939,73.4178724 45.0827634,73.1505142 44.8042281,72.9162799 C44.5715277,72.7128037 44.3682087,72.6039677 43.6689322,72.2597142 C42.7827903,71.8220039 42.5030798,71.6800437 42.1763589,71.4316134 C41.7744768,71.1360003 41.5376309,70.6644647 41.5393711,70.1634362 C41.5393711,68.9579579 42.6276567,68.1606152 44.2894666,68.1606152 C44.4927857,68.1606152 44.7125582,68.1771772 44.9593617,68.2079352 C45.3471957,68.2386932 45.5505147,68.2706343 46.0488226,68.3794704 L45.8302253,69.2395122 C45.1626807,69.0999181 44.7419396,69.0525981 44.337652,69.0525981 C43.3269332,69.0525981 42.6887699,69.4276094 42.6887699,70.022659 C42.6887699,70.4449904 42.9708311,70.6638456 43.8875295,71.1169351 L44.3999405,71.3689143 C45.1756085,71.7427427 45.5199581,71.946219 45.8455036,72.2597142 C46.1863274,72.5874056 46.3896464,73.0878151 46.3896464,73.5728455 C46.3896464,74.2779143 46.0170908,74.919101 45.3483709,75.3414323 M48.0385285,75.6845027 L49.1115359,75.6845027 L49.1115359,68.4102284 L48.0385285,68.4102284 L48.0385285,75.6845027 Z M48.5814962,67.5998905 C48.3957488,67.6008225 48.2173363,67.5269684 48.0859914,67.3947578 C47.9546465,67.2625471 47.881276,67.0829586 47.8822019,66.8959869 C47.8822019,66.5055965 48.1936622,66.1932842 48.5814962,66.1932842 C48.9705054,66.1932842 49.2819478,66.5055965 49.2819478,66.8959869 C49.2819478,67.2875603 48.9705054,67.5998905 48.5814962,67.5998905 Z M53.2460813,75.8418418 C51.9862085,75.8418418 51.4115091,75.2941123 51.4115091,74.1205751 L51.4115091,69.2406952 L50.1974711,69.2406952 L50.1974711,68.4114114 L51.4115091,68.4114114 L51.4115091,66.4239694 L52.469238,66.4239694 L52.469238,68.4114114 L54.3179134,68.4114114 L54.3179134,69.2406952 L52.4680629,69.2406952 L52.4680629,73.5586495 C52.4680629,73.8709619 52.4833411,74.1844572 52.5138978,74.3240514 C52.5926398,74.7463828 52.9346389,74.9498589 53.5880804,74.9498589 C53.8207808,74.9498589 54.0076463,74.919101 54.3179134,74.8552189 L54.3179134,75.6845027 C53.7890489,75.8110838 53.5716269,75.8418418 53.2460813,75.8418418 M59.4020645,71.993539 C57.3641731,72.5412686 56.4474747,73.1670762 56.4474747,73.99636 C56.4474747,74.4648284 56.7741954,74.7937028 57.2560497,74.7937028 C57.8624811,74.7937028 58.6863345,74.3086723 59.4020645,73.5113295 L59.4020645,71.993539 Z M60.6595869,75.8572209 C59.9309291,75.8572209 59.5101879,75.4041314 59.4631777,74.5902266 C59.1846424,74.8552189 59.0753437,74.9498589 58.9037565,75.0752571 C58.282047,75.5602876 57.6603373,75.8110838 57.0386277,75.8110838 C56.0584654,75.8110838 55.3439107,75.0752571 55.3439107,74.0744381 C55.3439107,72.6808626 56.6496184,71.7119848 59.4020645,71.1015561 L59.4020645,70.7892438 C59.4020645,69.5695696 59.1529106,69.1779961 58.3913457,69.1779961 C58.097532,69.1779961 57.8319245,69.2406952 57.4899254,69.3968514 C57.0386277,69.5837656 56.7119069,69.7718627 56.0901972,70.2568932 L55.5307761,69.5837656 C56.4004645,68.7556648 57.645059,68.1759941 58.5629327,68.1759941 C59.2163743,68.1759941 59.7440636,68.3960324 60.055506,68.8183638 C60.3657732,69.2087542 60.4586183,69.6784057 60.4586183,70.6330877 L60.4586183,74.1678951 C60.4586183,74.2779143 60.4738966,74.3867504 60.4903502,74.4955865 C60.5526387,74.7937028 60.7242258,74.9344799 61.0192147,74.9344799 C61.1273381,74.9344799 61.2060802,74.919101 61.408224,74.8717808 L61.546904,75.6076076 C61.2213585,75.7791428 60.9557509,75.8572209 60.6607621,75.8572209 L60.6595869,75.8572209 Z M62.6974782,75.6845027 L63.7704855,75.6845027 L63.7704855,68.4102284 L62.6974782,68.4102284 L62.6974782,75.6845027 Z M63.2404458,67.5998806 C63.0549017,67.600506 62.8767925,67.5265122 62.7457027,67.3943361 C62.6146128,67.26216 62.5414032,67.0827526 62.5423268,66.8959869 C62.5423268,66.5055965 62.8526118,66.1932842 63.2404458,66.1932842 C63.6306303,66.1932842 63.9420727,66.5055965 63.9420727,66.8959869 C63.9420727,67.2875603 63.6306303,67.5998806 63.2404458,67.5998806 Z M69.5539131,69.3968514 C69.3047591,69.2868323 69.1954605,69.2714533 69.0403268,69.2714533 C68.3880606,69.2714533 67.5642072,70.1007371 67.0506209,71.2588952 L67.0506209,75.6856857 L65.9928918,75.6856857 L65.9928918,68.4114114 L67.0506209,68.4114114 L67.0506209,69.8191829 C67.1117341,69.6937847 67.1751979,69.6003276 67.2057545,69.5530075 C67.4446192,69.2094771 67.7329771,68.9036689 68.0613398,68.6456456 C68.3802492,68.3929146 68.7742974,68.2554219 69.1801821,68.2552553 C69.4140578,68.2552553 69.5374595,68.2860132 69.8500772,68.3960324 L69.5539131,69.3968514 Z M73.8600456,69.0987351 C72.8340485,69.0987351 72.0242981,69.8972609 71.8221543,71.1334971 L75.6005976,71.0554191 C75.5700409,69.8499408 74.9013212,69.0987351 73.8600456,69.0987351 M76.036617,75.0906361 C75.1657534,75.6383656 74.4500234,75.8725999 73.6567266,75.8725999 C71.7763194,75.8725999 70.5481784,74.4021294 70.5481784,72.1650742 C70.5481784,69.8499408 71.9937414,68.1759941 73.968169,68.1759941 C75.7404528,68.1759941 76.7358934,69.4276094 76.7358934,71.6019656 L76.7358934,71.946219 L71.7445875,71.946219 L71.7445875,72.1816362 C71.7445875,73.8543999 72.5061524,74.8552189 73.7965819,74.8552189 C74.2643332,74.8552189 74.7920225,74.7310038 75.242145,74.4955865 C75.5853192,74.3240514 75.7569064,74.2140323 76.3316059,73.8094458 L76.8440169,74.4802075 C76.5643063,74.7617617 76.4409046,74.8398398 76.036617,75.0906361 M81.9598998,75.3414323 C81.384025,75.7164437 80.7458619,75.8737828 79.7210399,75.8737828 C79.5024425,75.8737828 79.3167524,75.8572209 79.1298869,75.8418418 C78.6950427,75.8099009 78.4764454,75.7637637 77.9311273,75.5910456 L78.119168,74.7463828 C78.3072088,74.7937028 78.4458887,74.8256438 78.5540122,74.8564019 C78.8960112,74.919101 79.3167524,74.965238 79.6575762,74.965238 C80.9950159,74.965238 81.8353228,74.4802075 81.8353228,73.7136227 C81.8353228,73.4178724 81.6942923,73.1505142 81.415757,72.9162799 C81.1818813,72.7128037 80.9797375,72.6039677 80.2792859,72.2597142 C79.3943191,71.8220039 79.1134334,71.6800437 78.7867125,71.4316134 C78.385131,71.1357436 78.1483681,70.6643732 78.1497246,70.1634362 C78.1497246,68.9579579 79.2380103,68.1606152 80.9009954,68.1606152 C81.1031393,68.1606152 81.3217366,68.1771772 81.5708905,68.2079352 C81.9587245,68.2386932 82.1620435,68.2706343 82.6591762,68.3794704 L82.4405788,69.2395122 C81.7730343,69.0999181 81.3522932,69.0525981 80.9491809,69.0525981 C79.9384621,69.0525981 79.3002988,69.4276094 79.3002988,70.022659 C79.3002988,70.4449904 79.5811846,70.6638456 80.4990584,71.1169351 L81.0114694,71.3689143 C81.7871373,71.7427427 82.1303117,71.946219 82.4570324,72.2597142 C82.7978563,72.5874056 83,73.0878151 83,73.5728455 C83,74.2779143 82.6286196,74.919101 81.9598998,75.3414323 M7.05857866,89.8130858 C6.52971412,89.9219219 5.97029296,90 5.44142843,90 C2.19184968,90 0,87.8410229 0,84.6492856 C0,81.4279735 2.44100364,79.1128402 5.81515937,79.1128402 C6.79414639,79.1128402 7.58626793,79.2678133 8.70628549,79.6913277 L8.37956474,80.6140686 C8.13158603,80.5359906 7.94472057,80.4579125 7.82014358,80.4271544 C7.17925253,80.2362169 6.51408383,80.1405664 5.84571599,80.1432342 C3.0932699,80.1432342 1.24341928,81.9271999 1.24341928,84.5712076 C1.24341928,87.1690782 3.0157031,88.999181 5.53427354,88.999181 C6.20416862,88.999181 6.99629016,88.8572209 7.6802883,88.6229866 L7.6802883,84.7770498 L8.86259434,84.7770498 L8.86259434,89.2192192 C8.02228736,89.5622895 7.66500999,89.6723087 7.05857866,89.8142688 M13.7751582,83.1480572 C12.7479858,83.1480572 11.9405859,83.9453999 11.7384422,85.1816362 L15.5157102,85.1035581 C15.4851535,83.8992629 14.8164337,83.1480572 13.7751582,83.1480572 M15.9505544,89.1399582 C15.0808661,89.6865048 14.3651361,89.9219219 13.5718392,89.9219219 C11.691432,89.9219219 10.463291,88.4514514 10.463291,86.2132132 C10.463291,83.8992629 11.9088541,82.2264992 13.8832816,82.2264992 C15.6555655,82.2264992 16.651006,83.4757485 16.651006,85.6501047 L16.651006,85.995541 L11.6608753,85.995541 L11.6608753,86.2297753 C11.6608753,87.903722 12.4224403,88.904541 13.7128697,88.904541 C14.1794458,88.904541 14.707135,88.7803258 15.1584328,88.5449086 C15.5004319,88.3733734 15.6720191,88.2645372 16.2455433,87.8564018 L16.7603047,88.5307126 C16.4805941,88.8110838 16.3560171,88.8891619 15.9505544,89.1399582 M23.2112768,89.7338248 L23.2112768,85.3377924 C23.2112768,84.7912458 23.2112768,84.6966057 23.1948232,84.3996725 C23.147813,83.6330877 22.7447007,83.2261352 22.0759809,83.2261352 C21.2674058,83.2261352 20.395367,83.7111657 19.5256786,84.6658477 L19.5256786,89.7338248 L18.4538465,89.7338248 L18.4538465,82.4583675 L19.5268538,82.4583675 L19.5268538,83.5396305 C19.7512453,83.3250719 19.9899902,83.1262556 20.2414086,82.9445809 C20.8936749,82.4749295 21.5623947,82.2406952 22.2475681,82.2406952 C22.9315662,82.2406952 23.4439772,82.4595504 23.8177081,82.8984439 C24.1749855,83.3361543 24.283109,83.8058059 24.283109,84.916644 L24.283109,89.7338248 L23.2112768,89.7338248 Z M30.1288249,81.5829466 L27.6408111,80.034398 L28.4341079,79.0808991 L30.6894213,80.9110019 L30.1288249,81.5841296 L30.1288249,81.5829466 Z M29.3367033,83.1480572 C28.3107062,83.1480572 27.5009557,83.9453999 27.2999873,85.1816362 L31.0772553,85.1035581 C31.0466987,83.8992629 30.3779788,83.1480572 29.3378786,83.1480572 L29.3367033,83.1480572 Z M31.5132747,89.1399582 C30.6435863,89.6876877 29.9278563,89.9219219 29.1333843,89.9219219 C27.2529771,89.9219219 26.0248361,88.4514514 26.0248361,86.2143962 C26.0248361,83.8992629 27.4703992,82.2253162 29.4448267,82.2253162 C31.2182858,82.2253162 32.2125511,83.4769315 32.2125511,85.6512876 L32.2125511,85.994358 L27.2224204,85.994358 L27.2224204,86.2297753 C27.2224204,87.903722 27.9839854,88.904541 29.2744148,88.904541 C29.7409909,88.904541 30.2698554,88.7791428 30.7199779,88.5449086 C31.061977,88.3733734 31.2335642,88.2633542 31.8082637,87.8564018 L32.3218498,88.5295295 C32.040964,88.8110838 31.9175622,88.8903449 31.5132747,89.1399582 Z M36.9382496,89.7338248 L35.9592626,89.7338248 L33.005848,82.4583675 L34.2175354,82.4583675 L36.5186837,88.3106744 L38.9279555,82.4595504 L40.0326948,82.4595504 L36.9382496,89.7338248 Z M44.1214052,83.1480572 C43.0942328,83.1480572 42.2868329,83.9453999 42.0835139,85.1816362 L45.8619572,85.1035581 C45.8314005,83.8992629 45.1626807,83.1480572 44.1214052,83.1480572 M46.2968013,89.1399582 C45.427113,89.6865048 44.711383,89.9219219 43.9192615,89.9219219 C42.037679,89.9219219 40.8083627,88.4514514 40.8083627,86.2132132 C40.8083627,83.8992629 42.2539258,82.2264992 44.2295286,82.2264992 C46.0018124,82.2264992 46.997253,83.4757485 46.997253,85.6501047 L46.997253,85.995541 L42.0071223,85.995541 L42.0071223,86.2297753 C42.0071223,87.903722 42.767512,88.904541 44.0579414,88.904541 C44.5256928,88.904541 45.053382,88.7803258 45.5035045,88.5449086 C45.8466789,88.3733734 46.018266,88.2645372 46.5929655,87.8564018 L47.1065517,88.5307126 C46.8268411,88.8110838 46.7022641,88.8891619 46.2968013,89.1399582 M7.29245431,61.6375467 L7.29245431,56.6476476 L1.64770684,56.6476476 L1.64770684,61.6375467 L0.466576045,61.6375467 L0.466576045,51.2034762 L1.64770684,51.2034762 L1.64770684,55.6917827 L7.29245431,55.6917827 L7.29245431,51.2034762 L8.4735851,51.2034762 L8.4735851,61.6375467 L7.29245431,61.6375467 Z M13.7269728,55.1144781 C12.4682752,55.1144781 11.5515767,56.2383292 11.5515767,57.8046228 C11.5515767,59.6027846 12.4529969,60.8082628 13.7892613,60.8082628 C15.0808661,60.8082628 15.935276,59.7128037 15.935276,58.0696151 C15.935276,56.2714533 15.0644125,55.1144781 13.7269728,55.1144781 L13.7269728,55.1144781 Z M15.4381434,53.5174265 L13.7892613,52.3912094 L12.079266,53.5174265 L11.5045665,52.8454818 L13.7892613,51 L16.0128429,52.8454818 L15.4381434,53.5174265 Z M13.6341277,61.8090818 C11.7219886,61.8090818 10.4315592,60.2759123 10.4315592,57.991537 C10.4315592,56.8972609 10.6642595,56.1614342 11.238959,55.4421694 C11.9088541,54.5975066 12.8408309,54.1290381 13.8515498,54.1290381 C15.7636889,54.1290381 17.070572,55.6775867 17.070572,57.9146419 C17.070572,60.1505142 15.6085553,61.8090818 13.6341277,61.8090818 Z M22.2628464,55.2079352 C21.4378177,55.2079352 20.5681294,55.7556648 19.9146878,56.6630267 L19.9146878,59.4466285 C20.5681294,60.3693694 21.3296943,60.8543999 22.1065376,60.8543999 C23.3346785,60.8543999 24.1902638,59.6347256 24.1902638,57.9134589 C24.1902638,56.3187733 23.3969671,55.2079352 22.2628464,55.2079352 M22.0912592,61.8410228 C21.235674,61.8410228 20.5516758,61.4967695 19.9146878,60.7455638 L19.9146878,65.2504323 L18.8569588,65.2504323 L18.8569588,54.3632724 L19.9146878,54.3632724 L19.9146878,55.4421694 C20.8466647,54.5194285 21.5788482,54.1432341 22.4955468,54.1432341 C24.1749855,54.1432341 25.3243844,55.5829466 25.3243844,57.6638457 C25.3243844,60.1363181 24.0033984,61.8398398 22.0912592,61.8398398"/></g><text fill="#151515" fill-opacity=".96" font-family="CooperHewitt-Semibold, Cooper Hewitt" font-size="46" font-weight="bold" letter-spacing="2">
            <tspan x="124" y="40">Storybook</tspan>
        </text><text fill="#151515" fill-opacity=".96" font-family="CooperHewitt-ThinItalic, Cooper Hewitt" font-size="38" font-style="italic" font-weight="bold">
            <tspan x="129" y="88">ngx-components</tspan>
        </text></g></svg>